<svg xmlns="http://www.w3.org/2000/svg" viewBox="0 0 330 330"><path d="M165 0C74.019 0 0 74.018 0 164.999S74.019 330 165 330s165-74.02 165-165.001C330 74.018 255.981 0 165 0zm0 300c-74.439 0-135-60.561-135-135.001C30 90.56 90.561 30 165 30s135 60.56 135 134.999C300 239.439 239.439 300 165 300z"/><path d="M165.002 230c-11.026 0-19.996 8.968-19.996 19.991 0 11.033 8.97 20.009 19.996 20.009 11.026 0 19.996-8.976 19.996-20.009 0-11.023-8.97-19.991-19.996-19.991zM165 60c-30.342 0-55.026 24.684-55.026 55.024 0 8.284 6.716 15 15 15 8.284 0 15-6.716 15-15C139.974 101.226 151.2 90 165 90s25.027 11.226 25.027 25.024c0 13.8-11.227 25.026-25.027 25.026-8.284 0-15 6.716-15 15V185c0 8.284 6.716 15 15 15s15-6.716 15-15v-17.044c23.072-6.548 40.027-27.79 40.027-52.931C220.027 84.684 195.342 60 165 60z"/></svg>